# xmcd
#
# Track frame offsets: 
#        150
#        26433
#        46718
#        68235
#        90309
#        112554
#        128355
#        148568
#        174290
#
# Disc length: 2526 seconds
#
# Revision: 0
# Processed by: cddbd v1.5.2PL0 Copyright (c) Steve Scherf et al.
# Submitted via: ExactAudioCopy v0.99pb5
#
DISCID=5b09dc09
DTITLE=Nguyen Hong nhung - AsiaCD-Mo ve anh
DYEAR=2005
DGENRE=Hai ngoai
TTITLE0=Anh sao dem
TTITLE1=Ao anh
TTITLE2=Bai hat cho anh
TTITLE3=Bien can
TTITLE4=Bai khong ten so 8
TTITLE5=Mo ve anh
TTITLE6=Trai tim hoi sinh
TTITLE7=Tinh si
TTITLE8=60 nam
EXTD=
EXTT0=
EXTT1=
EXTT2=
EXTT3=
EXTT4=
EXTT5=
EXTT6=
EXTT7=
EXTT8=
PLAYORDER=
